D:\school\WTK\thesis\model\3dpredictsim\Results\Batchsim_tmt_linear_v2\Pog_s1_tmt_aCst_d00_k2000_ig24_act_GRF.mot
nRows=15
nColumns=19

name D:\school\WTK\thesis\model\3dpredictsim\Results\Batchsim_tmt_linear_v2\Pog_s1_tmt_aCst_d00_k2000_ig24_act_GRF.mot
datacolumns 19
datarows 15
range 0.0000000000 0.1642219893
endheader
time 	ground_force_vx	ground_force_vy	ground_force_vz	ground_force_px	ground_force_py	ground_force_pz	1_ground_force_vx	1_ground_force_vy	1_ground_force_vz	1_ground_force_px	1_ground_force_py	1_ground_force_pz	ground_torque_x	ground_torque_y	ground_torque_z	1_ground_torque_x	1_ground_torque_y	1_ground_torque_z
        0.0000000000	      -71.4384320921	       54.9762575548	        8.1902188205	        0.3442457799	        0.0000000000	        0.0311697164	       47.4539920448	      266.8781982535	      -10.3951189611	       -0.3447743656	        0.0000000000	       -0.0405653465	        0.0000000000	        0.0000000000	        0.0000000000	        0.0000000000	        0.0000000000	        0.0000000000	
        0.0117301421	     -130.9564095689	      114.4698456856	       16.3992155700	        0.3394980753	        0.0000000000	        0.0353150767	       32.2511822531	      219.8815595899	      -12.2810731491	       -0.3333120376	        0.0000000000	       -0.0377133401	        0.0000000000	        0.0000000000	        0.0000000000	        0.0000000000	        0.0000000000	        0.0000000000	
        0.0234602842	     -239.3066918876	      318.9108227427	       25.6275344207	        0.3125923542	        0.0000000000	        0.0473266598	       36.1448871143	      184.7422759779	      -15.7811720668	       -0.3327558003	        0.0000000000	       -0.0379723317	        0.0000000000	        0.0000000000	        0.0000000000	        0.0000000000	        0.0000000000	        0.0000000000	
        0.0351904263	     -184.0612609859	      514.1582673265	       -2.8209927670	        0.2888932553	        0.0000000000	        0.0559307693	       34.0395333400	      142.0295558038	      -20.4003604506	       -0.3322440756	        0.0000000000	       -0.0383966457	        0.0000000000	        0.0000000000	        0.0000000000	        0.0000000000	        0.0000000000	        0.0000000000	
        0.0469205684	     -179.0983138058	      695.2131591616	      -10.5661094938	        0.2790847009	        0.0000000000	        0.0590882006	       24.9681261062	       90.7439060012	      -18.1300422962	       -0.3317826017	        0.0000000000	       -0.0385747285	        0.0000000000	        0.0000000000	        0.0000000000	        0.0000000000	        0.0000000000	        0.0000000000	
        0.0586507104	     -190.5069346661	      874.5986466935	      -20.1007433427	        0.2719400990	        0.0000000000	        0.0614310541	        7.0168858256	       33.4960622439	       -8.7597735478	       -0.3320960955	        0.0000000000	       -0.0385538879	        0.0000000000	        0.0000000000	        0.0000000000	        0.0000000000	        0.0000000000	        0.0000000000	
        0.0703808525	     -190.5368202388	      950.2228777006	      -23.9780675053	        0.2677641677	        0.0000000000	        0.0626850182	        0.1906874969	       -0.2000317020	        0.0268437957	        0.0000000000	        0.0000000000	        0.0000000000	        0.0000000000	        0.0000000000	        0.0000000000	        0.0000000000	        0.0000000000	        0.0000000000	
        0.0821109946	     -173.3441566527	      940.6012543587	      -22.8564928005	        0.2643350511	        0.0000000000	        0.0634185459	        0.0080164850	       -0.0064596220	       -0.0000575674	        0.0000000000	        0.0000000000	        0.0000000000	        0.0000000000	        0.0000000000	        0.0000000000	        0.0000000000	        0.0000000000	        0.0000000000	
        0.0938411367	     -150.9210041710	      884.5514967225	      -21.8770092996	        0.2627897648	        0.0000000000	        0.0637797497	        0.1830355182	       -0.1222763159	       -0.0065241761	        0.0000000000	        0.0000000000	        0.0000000000	        0.0000000000	        0.0000000000	        0.0000000000	        0.0000000000	        0.0000000000	        0.0000000000	
        0.1055712788	     -132.1261214612	      813.8093210553	      -19.4519147398	        0.2628589291	        0.0000000000	        0.0639815335	       -1.9782362936	        1.1556072121	        0.0893379124	        0.0000000000	        0.0000000000	        0.0000000000	        0.0000000000	        0.0000000000	        0.0000000000	        0.0000000000	        0.0000000000	        0.0000000000	
        0.1173014209	     -115.7357875689	      756.7316894879	      -18.2379664983	        0.2637589431	        0.0000000000	        0.0641240176	       -2.2796549480	        1.2014553289	        0.1130020252	        0.0000000000	        0.0000000000	        0.0000000000	        0.0000000000	        0.0000000000	        0.0000000000	        0.0000000000	        0.0000000000	        0.0000000000	
        0.1290315630	     -100.3612190388	      716.5973916360	      -18.4286510164	        0.2652741200	        0.0000000000	        0.0641759216	       -2.0545125931	        1.0002276156	        0.1053310842	        0.0000000000	        0.0000000000	        0.0000000000	        0.0000000000	        0.0000000000	        0.0000000000	        0.0000000000	        0.0000000000	        0.0000000000	
        0.1407617051	      -86.7385485205	      686.1768046257	      -18.5391993602	        0.2673035075	        0.0000000000	        0.0641213875	       -1.5610272958	        0.7232037709	        0.0682021466	        0.0000000000	        0.0000000000	        0.0000000000	        0.0000000000	        0.0000000000	        0.0000000000	        0.0000000000	        0.0000000000	        0.0000000000	
        0.1524918472	      -77.0372386764	      662.7773042861	      -19.0361264672	        0.2696034751	        0.0000000000	        0.0639612666	       -1.2058555039	        0.5361238122	        0.0456216683	        0.0000000000	        0.0000000000	        0.0000000000	        0.0000000000	        0.0000000000	        0.0000000000	        0.0000000000	        0.0000000000	        0.0000000000	
        0.1642219893	      -69.3761011769	      643.5786681224	      -20.0016884099	        0.2719717356	        0.0000000000	        0.0637240711	       -0.9896939147	        0.4261462999	        0.0316966362	        0.0000000000	        0.0000000000	        0.0000000000	        0.0000000000	        0.0000000000	        0.0000000000	        0.0000000000	        0.0000000000	        0.0000000000	
